<?xml version="1.0" encoding="UTF-8" standalone="no"?><!DOCTYPE svg PUBLIC "-//W3C//DTD SVG 1.1//EN" "http://www.w3.org/Graphics/SVG/1.1/DTD/svg11.dtd"><svg width="100%" height="100%" viewBox="0 0 8684 8684" version="1.1" xmlns="http://www.w3.org/2000/svg" xmlns:xlink="http://www.w3.org/1999/xlink" xml:space="preserve" xmlns:serif="http://www.serif.com/" style="fill-rule:evenodd;clip-rule:evenodd;stroke-linejoin:round;stroke-miterlimit:2;"><g><g><path d="M7409.76,7404.17c-1788.19,-1788.19 -4352.99,-1782.87 -6135.42,2.681c1782.42,-1785.54 1777.21,-4360.89 -2.681,-6140.78c1779.88,1779.88 4352.16,1783.7 6135.42,-2.681c-1783.25,1786.36 -1785.52,4352.58 2.681,6140.78" style="fill:#fff;fill-rule:nonzero;"/><path d="M7409.76,7404.17l360.798,-361.429c-972.284,-973.939 -2202.24,-1489.97 -3432.31,-1489.77c-1229.24,-0.627 -2451.96,508.327 -3421.53,1496.24l723.597,723.597c977.882,-979.596 1477.01,-2212.14 1475.31,-3442.46c-0.872,-1231.14 -509.211,-2453.4 -1483.15,-3425.68l-721.593,722.855c971.449,974.773 2193.92,1481.66 3423.16,1482.28c1229.24,0.631 2461.11,-500.837 3438.99,-1480.43l-723.597,-723.597c-986.199,971.279 -1494.47,2196.34 -1492.77,3426.65c1.702,1230.31 517.528,2461.72 1492.3,3433.17l721.594,-722.855l-360.798,361.429l360.798,-361.429c-797.622,-799.278 -1186,-1758.79 -1187.31,-2706.47c-0.48,-948.504 384.419,-1900.14 1189.78,-2706.91l-723.597,-723.597c-813.68,798.453 -1764.14,1184.52 -2711.82,1184.87c-946.845,-0.484 -1905.86,-388.355 -2705.14,-1185.98l-721.593,722.855c796.791,800.115 1185.99,1758.8 1187.3,2706.47c-0.348,949.332 -385.244,1900.97 -1181.46,2715.22l723.597,723.597c804.535,-805.942 1755,-1192.01 2703.51,-1193.18c946.846,0.484 1905.03,389.189 2705.14,1185.98l721.594,-722.855l-360.798,361.429" style="fill:#67acd7;fill-rule:nonzero;"/></g></g></svg>