<?xml version="1.0" encoding="UTF-8" standalone="no"?><!DOCTYPE svg PUBLIC "-//W3C//DTD SVG 1.1//EN" "http://www.w3.org/Graphics/SVG/1.1/DTD/svg11.dtd"><svg width="100%" height="100%" viewBox="0 0 2084 2084" version="1.1" xmlns="http://www.w3.org/2000/svg" xmlns:xlink="http://www.w3.org/1999/xlink" xml:space="preserve" xmlns:serif="http://www.serif.com/" style="fill-rule:evenodd;clip-rule:evenodd;stroke-linejoin:round;stroke-miterlimit:2;"><g><g><path d="M2083.44,1040.43c-606.933,-0 -1041.29,436.164 -1040.76,1041.67c-0.529,-605.502 -438.466,-1041.67 -1042.58,-1041.67c604.111,-0 1041.29,-435.883 1040.76,-1041.67c0.529,605.783 435.644,1041.67 1042.58,1041.67" style="fill:#fff;fill-rule:nonzero;"/><path d="M2083.44,1040.43l-0.107,-122.566c-330.285,-0.281 -626.589,120.875 -835.304,329.659c-208.716,208.503 -329.846,502.378 -326.733,834.573l245.597,0c-0.291,-332.195 -124.757,-626.07 -333.837,-834.573c-209.08,-208.784 -502.772,-329.94 -833.057,-329.659l0.214,245.131c330.285,0.564 623.766,-120.875 832.481,-329.377c208.716,-208.502 332.669,-502.659 332.379,-834.854l-245.597,-0c-2.532,332.195 119.111,626.352 328.191,834.854c209.08,208.502 505.596,329.941 835.88,329.377l-0.214,-245.131l0.107,122.566l-0.107,-122.566c-271.003,-0.281 -499.747,-97.207 -660.795,-257.81c-161.048,-160.885 -257.226,-387.702 -257.465,-661.29l-245.597,-0c-2.584,273.588 -98.365,500.405 -259.133,661.29c-160.767,160.603 -389.341,257.529 -660.344,257.81l0.214,245.131c271.004,0.564 499.747,97.208 660.795,257.811c161.048,161.166 257.227,387.983 260.288,661.29l245.597,0c-0.239,-273.307 95.543,-500.124 256.31,-661.29c160.767,-160.603 389.342,-257.247 660.344,-257.811l-0.214,-245.131l0.107,122.566" style="fill:#b56327;fill-rule:nonzero;"/></g></g></svg>