<svg viewBox="0 0 8684 8684" width="100" height="100" xmlns="http://www.w3.org/2000/svg" fill-rule="evenodd" clip-rule="evenodd" stroke-linejoin="round" stroke-miterlimit="2"><g fill-rule="nonzero"><path d="M8681 4335.12c-2528.89 0-4338.71 1817.35-4336.5 4340.29C4342.296 6152.48 2517.56 4335.12.42 4335.12c2517.13 0 4338.71-1816.18 4336.5-4340.29 2.204 2524.1 1815.18 4340.29 4344.08 4340.29" fill="#ebffff"/><path d="M8681 4335.12l-.446-510.692c-1376.19-1.17-2610.79 503.646-3480.43 1373.58-869.65 868.762-1374.36 2093.24-1361.39 3477.39h1023.32c-1.212-1384.15-519.821-2608.62-1390.99-3477.39-871.167-869.934-2094.88-1374.75-3471.07-1373.58l.892 1021.38c1376.19 2.35 2599.03-503.646 3468.67-1372.4 869.65-868.758 1386.12-2094.41 1384.91-3478.56h-1023.32c-10.55 1384.15 496.296 2609.8 1367.46 3478.56 871.166 868.759 2106.65 1374.76 3482.83 1372.4l-.892-1021.38.446 510.692-.446-510.692c-1129.18-1.17-2082.28-405.029-2753.31-1074.21-671.034-670.354-1071.78-1615.42-1072.77-2755.38h-1023.32c-10.767 1139.95-409.854 2085.02-1079.72 2755.38-669.862 669.179-1622.25 1073.04-2751.43 1074.21l.891 1021.38c1129.18 2.35 2082.28 405.033 2753.31 1074.21 671.033 671.525 1071.78 1616.6 1084.53 2755.38h1023.32c-.996-1138.78 398.096-2083.85 1067.96-2755.38 669.863-669.179 1622.26-1071.86 2751.43-1074.21l-.892-1021.38.446 510.692" fill="#e3b685"/></g></svg>
