<?xml version="1.0" encoding="UTF-8" standalone="no"?><!DOCTYPE svg PUBLIC "-//W3C//DTD SVG 1.1//EN" "http://www.w3.org/Graphics/SVG/1.1/DTD/svg11.dtd"><svg width="100%" height="100%" viewBox="0 0 36184 36184" version="1.1" xmlns="http://www.w3.org/2000/svg" xmlns:xlink="http://www.w3.org/1999/xlink" xml:space="preserve" xmlns:serif="http://www.serif.com/" style="fill-rule:evenodd;clip-rule:evenodd;stroke-linejoin:round;stroke-miterlimit:2;"><g><g><path d="M30874,30850.7c-7450.79,-7450.79 -18137.5,-7428.62 -25564.2,11.171c7426.75,-7439.75 7405.04,-18170.4 -11.171,-25586.6c7416.17,7416.17 18134,7432.08 25564.2,-11.171c-7430.21,7443.17 -7439.67,18135.8 11.171,25586.6" style="fill:#ebffff;fill-rule:nonzero;"/><path d="M30874,30850.7l1503.33,-1505.95c-4051.18,-4058.08 -9176,-6208.21 -14301.3,-6207.38c-5121.83,-2.612 -10216.5,2118.03 -14256.4,6234.33l3014.99,3014.99c4074.51,-4081.65 6154.21,-9217.25 6147.12,-14343.6c-3.634,-5129.75 -2121.71,-10222.5 -6179.79,-14273.7l-3006.64,3011.9c4047.7,4061.55 9141.33,6173.58 14263.2,6176.17c5121.83,2.63 10254.6,-2086.82 14329.1,-6168.46l-3014.99,-3014.99c-4109.16,4046.99 -6226.96,9151.42 -6219.88,14277.7c7.091,5126.29 2156.37,10257.2 6217.92,14304.9l3006.64,-3011.9l-1503.33,1505.95l1503.33,-1505.95c-3323.43,-3330.33 -4941.67,-7328.29 -4947.12,-11277c-2,-3952.1 1601.75,-7917.25 4957.42,-11278.8l-3014.99,-3014.99c-3390.33,3326.89 -7350.58,4935.5 -11299.2,4936.96c-3945.19,-2.017 -7941.08,-1618.15 -11271.4,-4941.58l-3006.64,3011.9c3319.96,3333.81 4941.62,7328.33 4947.08,11277c-1.45,3955.55 -1605.18,7920.71 -4922.75,11313.4l3014.99,3014.99c3352.23,-3358.09 7312.5,-4966.71 11264.6,-4971.58c3945.19,2.016 7937.62,1621.62 11271.4,4941.58l3006.64,-3011.9l-1503.33,1505.95" style="fill:#ff504e;fill-rule:nonzero;"/></g></g></svg>