<svg viewBox="0 0 530 530" width="500" height="500"
     xmlns="http://www.w3.org/2000/svg">
  <g style="fill-rule:evenodd;clip-rule:evenodd;stroke-linejoin:miter;stroke-miterlimit:10;" transform="translate(15,15)">
    <path d="M279.589,0.001L279.589,0.001L279.589,0.186C279.69,65.765 302.763,120.134 341.374,158.71C380.022,197.255 434.914,220.517 499.949,220.584L499.949,220.584L499.975,250L499.974,250L500,279.416C434.966,279.551 380.114,302.746 341.534,341.29C303.031,379.893 280.06,434.189 280.025,499.607C280.026,499.738 280.026,499.869 280.026,500L221.088,500C220.354,434.406 197.273,379.97 158.626,341.29C119.978,302.746 65.085,279.551 0.051,279.416L0,220.584C65.034,220.517 119.886,197.254 158.466,158.71C197.047,120.097 220.032,65.661 220.652,-0L279.589,-0L279.589,0.001Z"       style="fill:#00a8f2; stroke:#000; stroke-width:15;fill-rule:nonzero;"/>
    <path d="M442.832,251.5C331.339,251.5 251.549,331.63 251.646,442.871C251.549,331.631 171.101,251.5 60.126,251.5C171.1,251.5 251.41,171.421 251.312,60.129C251.409,171.421 331.339,251.5 442.832,251.5Z" style="fill:#ebffff;fill-rule:nonzero; stroke:#00a8f2; stroke-width:50;"/>
  </g>
</svg>

