<?xml version="1.0" encoding="UTF-8" standalone="no"?><!DOCTYPE svg PUBLIC "-//W3C//DTD SVG 1.1//EN" "http://www.w3.org/Graphics/SVG/1.1/DTD/svg11.dtd"><svg width="100%" height="100%" viewBox="0 0 36184 36184" version="1.1" xmlns="http://www.w3.org/2000/svg" xmlns:xlink="http://www.w3.org/1999/xlink" xml:space="preserve" xmlns:serif="http://www.serif.com/" style="fill-rule:evenodd;clip-rule:evenodd;stroke-linejoin:round;stroke-miterlimit:2;"><g><g><path d="M36170.8,18063c-10537,0 -18078,7572.29 -18068.8,18084.5c-9.183,-10512.2 -7612.25,-18084.5 -18100.3,-18084.5c10488,0 18078,-7567.42 18068.8,-18084.5c9.183,10517.1 7563.25,18084.5 18100.3,18084.5" style="fill:#f0feff;fill-rule:nonzero;"/><path d="M36170.8,18063l-1.858,-2127.88c-5734.12,-4.875 -10878.3,2098.53 -14501.8,5723.25c-3623.54,3619.84 -5726.5,8721.83 -5672.46,14489.1l4263.83,-0c-5.05,-5767.29 -2165.92,-10869.2 -5795.79,-14489.1c-3629.86,-3624.72 -8728.67,-5728.12 -14462.8,-5723.25l3.717,4255.75c5734.12,9.791 10829.3,-2098.53 14452.8,-5718.33c3623.54,-3619.83 5775.5,-8726.71 5770.46,-14494l-4263.83,0c-43.958,5767.29 2067.9,10874.2 5697.75,14494c3629.86,3619.83 8777.71,5728.17 14511.8,5718.33l-3.717,-4255.75l1.859,2127.88l-1.859,-2127.88c-4704.92,-4.875 -8676.17,-1687.62 -11472.1,-4475.88c-2795.97,-2793.14 -4465.75,-6730.92 -4469.88,-11480.8l-4263.83,-0c-44.863,4749.79 -1707.73,8687.58 -4498.83,11480.8c-2791.09,2788.25 -6759.38,4471 -11464.3,4475.88l3.712,4255.75c4704.92,9.791 8676.17,1687.64 11472.1,4475.88c2795.97,2798.02 4465.75,6735.83 4518.88,11480.8l4263.83,-0c-4.15,-4744.92 1658.73,-8682.71 4449.83,-11480.8c2791.1,-2788.25 6759.42,-4466.08 11464.3,-4475.88l-3.717,-4255.75l1.858,2127.88" style="fill:#f6ade7;fill-rule:nonzero;"/></g></g></svg>