<?xml version="1.0" encoding="UTF-8" standalone="no"?><!DOCTYPE svg PUBLIC "-//W3C//DTD SVG 1.1//EN" "http://www.w3.org/Graphics/SVG/1.1/DTD/svg11.dtd"><svg width="100%" height="100%" viewBox="0 0 628196 628196" version="1.1" xmlns="http://www.w3.org/2000/svg" xmlns:xlink="http://www.w3.org/1999/xlink" xml:space="preserve" xmlns:serif="http://www.serif.com/" style="fill-rule:evenodd;clip-rule:evenodd;stroke-linejoin:round;stroke-miterlimit:2;"><g><g><path d="M536008,535604c-129354,-129354 -314887,-128969 -443825,193.941c128937,-129162 128560,-315458 -193.941,-444212c128753,128753 314826,129029 443825,-193.941c-128997,129222 -129161,314858 193.941,444212" style="fill:#ebffff;fill-rule:nonzero;"/><path d="M536008,535604l26099.5,-26145c-70332.9,-70452.9 -159305,-107781 -248287,-107767c-88920.8,-45.346 -177370,36771.3 -247507,108235l52343.8,52343.8c70737.9,-70862.1 106844,-160022 106721,-249021c-63.088,-89058.3 -36835.2,-177474 -107288,-247808l-52198.8,52290c70272.5,70512.9 158704,107180 247625,107225c88920.8,45.658 178031,-36229.5 248769,-107091l-52343.8,-52343.8c-71339.6,70260.4 -108107,158879 -107984,247877c123.108,88997.9 37437,178076 107950,248349l52198.8,-52290l-26099.5,26145l26099.5,-26145c-57698.3,-57818.3 -85792.9,-127227 -85887.5,-195781c-34.725,-68612.9 27808.2,-137452 86066.2,-195812l-52343.8,-52343.8c-58860,57758.3 -127614,85685.8 -196167,85711.2c-68492.9,-35.017 -137866,-28092.9 -195684,-85791.2l-52198.8,52290c57638.3,57878.8 85792.1,127228 85886.7,195781c-25.175,68672.9 -27867.7,137512 -85464.6,196413l52343.8,52343.8c58198.3,-58300 126953,-86227.5 195566,-86312.1c68492.9,35 137806,28153.1 195684,85791.2l52198.8,-52290l-26099.5,26145" style="fill:#c7303a;fill-rule:nonzero;"/></g></g></svg>