<svg viewBox="0 0 36184 36184" width="100" height="100" xmlns="http://www.w3.org/2000/svg" fill-rule="evenodd" clip-rule="evenodd" stroke-linejoin="round" stroke-miterlimit="2"><g fill-rule="nonzero"><path d="M18098.5 36148.3c0-10537-7572.29-18078-18084.6-18068.8 10512.2-9.192 18084.6-7612.24 18084.5-18100.3 0 10488 7567.4 18078 18084.6 18068.8-10517.1 9.163-18084.5 7563.27-18084.5 18100.3" fill="#ebffff"/><path d="M18098.5 36148.3l2127.88-1.859c4.876-5734.11-2098.55-10878.3-5723.26-14501.8-3619.84-3623.53-8721.83-5726.48-14489.1-5672.44v4263.84c5767.28-5.05 10869.3-2165.9 14489.1-5795.77 3624.71-3629.85 5728.12-8728.68 5723.23-14462.8l-4255.75 3.718c-9.793 5734.11 2098.52 10829.3 5718.37 14452.8 3619.82 3623.54 8726.72 5775.51 14494 5770.46v-4263.84c-5767.28-43.958-10874.2 2067.9-14494 5697.75-3619.82 3629.85-5728.13 8777.69-5718.34 14511.8l4255.75-3.715-2127.88 1.859 2127.88-1.859c4.879-4704.91 1687.6-8676.17 4475.87-11472.2 2793.14-2795.97 6730.95-4465.74 11480.7-4469.89v-4263.84c-4749.79-44.863-8687.57-1707.72-11480.7-4498.82-2788.24-2791.09-4470.99-6759.4-4475.87-11464.3l-4255.74 3.718c-9.794 4704.93-1687.66 8676.17-4475.9 11472.1-2798.02 2795.97-6735.82 4465.75-11480.7 4518.88v4263.84c4744.91-4.145 8682.71 1658.73 11480.7 4449.85 2788.24 2791.1 4466.09 6759.41 4475.87 11464.3l4255.75-3.715-2127.88 1.859" fill="#00a8f2"/></g></svg>
