<svg viewBox="0 0 36184 36184" width="100" height="100" xmlns="http://www.w3.org/2000/svg" fill-rule="evenodd" clip-rule="evenodd" stroke-linejoin="round" stroke-miterlimit="2"><g fill-rule="nonzero"><path d="M36170.8 18063c-10537 0-18078 7572.29-18068.8 18084.5C18092.817 25635.3 10489.75 18063 1.7 18063c10488 0 18078-7567.42 18068.8-18084.5 9.183 10517.1 7563.25 18084.5 18100.3 18084.5" fill="#f0feff"/><path d="M36170.8 18063l-1.858-2127.88c-5734.12-4.875-10878.3 2098.53-14501.8 5723.25-3623.54 3619.84-5726.5 8721.83-5672.46 14489.1h4263.83c-5.05-5767.29-2165.92-10869.2-5795.79-14489.1-3629.86-3624.72-8728.67-5728.12-14462.8-5723.25l3.717 4255.75c5734.12 9.791 10829.3-2098.53 14452.8-5718.33 3623.54-3619.83 5775.5-8726.71 5770.46-14494h-4263.83c-43.958 5767.29 2067.9 10874.2 5697.75 14494 3629.86 3619.83 8777.71 5728.17 14511.8 5718.33l-3.717-4255.75 1.859 2127.88-1.859-2127.88c-4704.92-4.875-8676.17-1687.62-11472.1-4475.88-2795.97-2793.14-4465.75-6730.92-4469.88-11480.8h-4263.83c-44.863 4749.79-1707.73 8687.58-4498.83 11480.8-2791.09 2788.25-6759.38 4471-11464.3 4475.88l3.712 4255.75c4704.92 9.791 8676.17 1687.64 11472.1 4475.88 2795.97 2798.02 4465.75 6735.83 4518.88 11480.8h4263.83c-4.15-4744.92 1658.73-8682.71 4449.83-11480.8 2791.1-2788.25 6759.42-4466.08 11464.3-4475.88l-3.717-4255.75 1.858 2127.88" fill="#f6ade7"/></g></svg>
