<?xml version="1.0" encoding="UTF-8" standalone="no"?><!DOCTYPE svg PUBLIC "-//W3C//DTD SVG 1.1//EN" "http://www.w3.org/Graphics/SVG/1.1/DTD/svg11.dtd"><svg width="100%" height="100%" viewBox="0 0 150767 150767" version="1.1" xmlns="http://www.w3.org/2000/svg" xmlns:xlink="http://www.w3.org/1999/xlink" xml:space="preserve" xmlns:serif="http://www.serif.com/" style="fill-rule:evenodd;clip-rule:evenodd;stroke-linejoin:round;stroke-miterlimit:2;"><g><g><path d="M128642,128545c-31045,-31045 -75572.9,-30952.6 -106518,46.546c30944.8,-30999 30854.3,-75710 -46.546,-106611c30900.7,30900.7 75558.3,30967 106518,-46.546c-30959.2,31013.2 -30998.6,75565.8 46.546,106611" style="fill:#ebffff;fill-rule:nonzero;"/><path d="M128642,128545l6263.88,-6274.79c-16879.9,-16908.7 -38233.3,-25867.5 -59588.8,-25864.1c-21341,-10.883 -42568.8,8825.12 -59401.7,25976.4l12562.5,12562.5c16977.1,-17006.9 25642.5,-38405.2 25613,-59765c-15.141,-21374 -8840.46,-42593.8 -25749.1,-59473.8l-12527.7,12549.6c16865.4,16923.1 38088.9,25723.2 59430,25734c21341,10.958 42727.5,-8695.08 59704.6,-25701.9l-12562.5,-12562.5c-17121.5,16862.5 -25945.7,38130.9 -25916.2,59490.4c29.546,21359.5 8984.88,42738.3 25908,59603.8l12527.7,-12549.6l-6263.88,6274.79l6263.88,-6274.79c-13847.6,-13876.4 -20590.3,-30534.5 -20613,-46987.5c-8.334,-16467.1 6673.96,-32988.5 20655.9,-46995l-12562.5,-12562.5c-14126.4,13862 -30627.4,20564.6 -47080,20570.7c-16438.3,-8.404 -33087.8,-6742.29 -46964.2,-20589.9l-12527.7,12549.6c13833.2,13890.9 20590.1,30534.7 20612.8,46987.5c-6.042,16481.5 -6688.25,33003 -20511.5,47139.2l12562.5,12562.5c13967.6,-13992 30468.8,-20694.6 46935.8,-20714.9c16438.3,8.4 33073.4,6756.75 46964.2,20589.9l12527.7,-12549.6l-6263.88,6274.79" style="fill:#00aa3d;fill-rule:nonzero;"/></g></g></svg>