<svg viewBox="0 0 500 500" width="500" height="500"
     xmlns="http://www.w3.org/2000/svg">
  <g style="fill-rule:evenodd;clip-rule:evenodd;stroke-linejoin:miter;stroke-miterlimit:10;" transform="translate(10,10)">
    <path d="M447.699,94.146L447.699,94.146L447.568,94.278C401.268,140.72 379.138,195.48 379.163,250.059C379.236,304.643 401.602,359.907 447.54,405.94L447.541,405.941L426.759,426.759L426.758,426.759L405.977,447.577C359.895,401.687 304.708,379.301 250.172,379.276C195.65,379.347 141.015,401.497 94.733,447.73C94.64,447.823 94.548,447.916 94.455,448.008L52.78,406.333C98.642,359.432 120.814,304.619 120.837,249.941C120.764,195.358 98.35,140.141 52.46,94.06L94.023,52.423C140.057,98.362 195.292,120.699 249.828,120.724C304.411,120.701 359.156,98.462 406.024,52.471L447.699,94.146L447.699,94.146Z"       style="fill:#c7303a; stroke:#000; stroke-width:10;fill-rule:nonzero;"/>
    <path d="M385.292,387.414C306.455,308.576 193.374,308.816 114.784,387.545C193.374,308.817 193.149,195.271 114.678,116.8C193.149,195.27 306.56,195.433 385.187,116.669C306.56,195.433 306.455,308.576 385.292,387.414Z" style="fill:#ebffff;fill-rule:nonzero; stroke:#000; stroke-width:0;"/>
  </g>
</svg>

