<?xml version="1.0" encoding="UTF-8" standalone="no"?><!DOCTYPE svg PUBLIC "-//W3C//DTD SVG 1.1//EN" "http://www.w3.org/Graphics/SVG/1.1/DTD/svg11.dtd"><svg width="100%" height="100%" viewBox="0 0 8684 8684" version="1.1" xmlns="http://www.w3.org/2000/svg" xmlns:xlink="http://www.w3.org/1999/xlink" xml:space="preserve" xmlns:serif="http://www.serif.com/" style="fill-rule:evenodd;clip-rule:evenodd;stroke-linejoin:round;stroke-miterlimit:2;"><g><g><path d="M8681,4335.12c-2528.89,0 -4338.71,1817.35 -4336.5,4340.29c-2.204,-2522.93 -1826.94,-4340.29 -4344.08,-4340.29c2517.13,0 4338.71,-1816.18 4336.5,-4340.29c2.204,2524.1 1815.18,4340.29 4344.08,4340.29" style="fill:#ebffff;fill-rule:nonzero;"/><path d="M8681,4335.12l-0.446,-510.692c-1376.19,-1.17 -2610.79,503.646 -3480.43,1373.58c-869.65,868.762 -1374.36,2093.24 -1361.39,3477.39l1023.32,0c-1.212,-1384.15 -519.821,-2608.62 -1390.99,-3477.39c-871.167,-869.934 -2094.88,-1374.75 -3471.07,-1373.58l0.892,1021.38c1376.19,2.35 2599.03,-503.646 3468.67,-1372.4c869.65,-868.758 1386.12,-2094.41 1384.91,-3478.56l-1023.32,0c-10.55,1384.15 496.296,2609.8 1367.46,3478.56c871.166,868.759 2106.65,1374.76 3482.83,1372.4l-0.892,-1021.38l0.446,510.692l-0.446,-510.692c-1129.18,-1.17 -2082.28,-405.029 -2753.31,-1074.21c-671.034,-670.354 -1071.78,-1615.42 -1072.77,-2755.38l-1023.32,0c-10.767,1139.95 -409.854,2085.02 -1079.72,2755.38c-669.862,669.179 -1622.25,1073.04 -2751.43,1074.21l0.891,1021.38c1129.18,2.35 2082.28,405.033 2753.31,1074.21c671.033,671.525 1071.78,1616.6 1084.53,2755.38l1023.32,0c-0.996,-1138.78 398.096,-2083.85 1067.96,-2755.38c669.863,-669.179 1622.26,-1071.86 2751.43,-1074.21l-0.892,-1021.38l0.446,510.692" style="fill:#ec6b82;fill-rule:nonzero;"/></g></g></svg>