<?xml version="1.0" standalone="no"?>
<!DOCTYPE svg PUBLIC "-//W3C//DTD SVG 20010904//EN"
 "http://www.w3.org/TR/2001/REC-SVG-20010904/DTD/svg10.dtd">
<svg version="1.0" xmlns="http://www.w3.org/2000/svg"
 width="700.000000pt" height="700.000000pt" viewBox="0 0 700.000000 700.000000"
 preserveAspectRatio="xMidYMid meet">
<metadata>
Created by potrace 1.14, written by Peter Selinger 2001-2017
</metadata>
<g transform="translate(0.000000,700.000000) scale(0.100000,-0.100000)"
fill="#000000" stroke="none">
<path d="M3089 6968 c-5 -131 -9 -194 -24 -353 -5 -51 -16 -134 -21 -160 -3
-11 -7 -36 -10 -55 -3 -19 -17 -87 -31 -150 -111 -503 -316 -923 -643 -1315
-33 -40 -246 -252 -290 -290 -302 -257 -653 -452 -1030 -570 -95 -30 -243 -70
-295 -81 -42 -8 -49 -9 -105 -19 -19 -3 -57 -10 -85 -15 -56 -10 -137 -20
-193 -25 -117 -9 -226 -16 -290 -17 l-72 -2 0 -411 1 -410 72 -2 c85 -3 249
-13 292 -18 17 -2 55 -7 85 -10 76 -8 114 -14 195 -30 39 -8 82 -16 96 -19 55
-9 268 -69 369 -103 177 -60 373 -150 538 -247 29 -17 61 -35 71 -41 51 -29
202 -137 276 -197 290 -234 515 -502 698 -830 62 -112 72 -131 120 -238 89
-198 179 -485 216 -695 6 -33 13 -69 15 -81 2 -12 7 -45 11 -74 4 -29 8 -60
10 -69 1 -9 6 -50 10 -91 4 -41 8 -89 10 -105 2 -17 5 -77 6 -133 2 -84 6
-102 18 -103 61 -4 795 -3 801 1 4 3 11 68 14 145 4 77 8 158 10 180 7 86 19
190 22 196 1 3 6 28 9 55 10 73 52 267 81 369 108 384 274 713 523 1035 88
113 299 328 408 415 49 38 90 73 93 76 13 16 257 173 345 222 217 120 539 245
753 292 167 37 217 46 304 59 57 9 137 18 178 21 41 4 91 8 110 10 19 3 79 5
132 6 92 0 98 2 103 22 2 12 3 198 2 412 l-2 390 -45 1 c-82 3 -282 15 -319
19 -176 22 -218 28 -331 51 -539 109 -1027 349 -1419 699 -50 45 -213 213
-257 266 -68 82 -76 91 -139 178 -208 285 -376 650 -470 1018 -25 101 -61 290
-70 370 -2 21 -6 56 -9 78 -10 77 -18 201 -21 300 l-2 100 -411 3 -412 2 -1
-32z"/>
</g>
</svg>
